<?xml version="1.0" standalone="no"?>
<!DOCTYPE svg PUBLIC "-//W3C//DTD SVG 20010904//EN"
 "http://www.w3.org/TR/2001/REC-SVG-20010904/DTD/svg10.dtd">
<svg version="1.0" xmlns="http://www.w3.org/2000/svg"
 width="964.000000pt" height="119.000000pt" viewBox="0 0 964.000000 119.000000"
 preserveAspectRatio="xMidYMid meet">

<g transform="translate(0.000000,119.000000) scale(0.100000,-0.100000)"
fill="#000000" stroke="none">
<path d="M4647 1160 c-46 -8 -87 -45 -87 -77 0 -28 25 -31 40 -3 24 45 130 32
206 -27 33 -24 64 -75 64 -102 0 -18 -31 -41 -73 -52 -54 -14 -194 -87 -201
-104 -2 -7 -31 -23 -63 -35 -32 -12 -67 -30 -78 -40 -11 -10 -40 -28 -65 -40
-25 -12 -56 -32 -70 -45 -14 -12 -42 -28 -64 -35 -44 -14 -142 -103 -131 -119
3 -6 15 -11 26 -11 11 0 23 -8 26 -17 8 -22 85 -98 108 -106 9 -4 26 -2 38 4
32 17 77 61 77 76 0 14 31 33 54 33 23 0 20 -20 -9 -62 -35 -51 -35 -114 0
-130 21 -9 28 -8 45 7 11 10 20 26 18 34 -2 18 29 82 46 93 6 4 21 8 32 8 19
0 22 -8 28 -67 4 -42 3 -70 -4 -77 -15 -15 -12 -43 4 -49 8 -3 30 4 48 16 33
23 40 39 69 176 9 42 33 91 45 91 13 0 84 -66 84 -79 0 -8 -16 -29 -35 -47
-23 -21 -35 -41 -35 -58 0 -29 14 -33 57 -14 28 12 141 109 155 133 5 7 -3 24
-18 40 -29 32 -27 51 14 130 34 67 36 161 4 222 -12 23 -22 55 -22 70 0 42
-53 143 -96 184 -66 63 -160 94 -237 79z"/>
<path d="M3930 1090 c-29 -31 -85 -41 -106 -20 -16 16 -70 29 -84 20 -10 -6
-10 -19 -2 -56 37 -163 37 -159 -23 -198 -100 -62 -250 -281 -279 -404 -12
-54 -22 -69 -75 -122 -36 -36 -64 -72 -69 -92 l-8 -33 -1417 -3 -1417 -2 0
-40 0 -40 1419 0 1419 0 6 -23 c3 -13 15 -36 27 -50 19 -25 26 -27 96 -27 55
0 74 3 70 13 -2 7 -18 11 -40 9 -30 -3 -43 2 -67 26 -16 17 -30 35 -30 41 0 8
847 11 2940 11 l2940 0 0 40 0 40 -2935 0 c-2882 0 -2936 0 -2926 19 6 10 29
34 52 52 l42 33 168 -2 c97 -1 171 2 174 8 3 6 15 5 30 -2 31 -14 75 -3 75 20
0 10 -11 33 -25 52 -30 40 -31 57 -6 89 l18 24 22 -57 c11 -31 21 -63 21 -71
0 -22 46 -48 70 -40 24 7 26 31 6 71 -20 40 -23 222 -6 302 12 52 12 74 1 130
-7 37 -12 74 -12 82 1 8 4 41 7 73 4 43 2 64 -10 82 -9 13 -16 36 -16 50 0 33
-16 32 -50 -5z"/>
<path d="M5286 1079 c-9 -48 -7 -99 4 -99 6 0 10 9 10 21 0 34 53 79 94 79
l36 0 0 -167 c0 -93 -4 -174 -9 -181 -4 -7 -21 -17 -37 -22 -21 -6 4 -8 86 -9
105 0 112 1 84 13 -18 8 -34 24 -37 37 -4 13 -7 93 -7 177 l0 152 29 0 c53 0
81 -17 101 -62 l19 -43 0 68 1 67 -184 0 -183 0 -7 -31z"/>
<path d="M5690 1100 c0 -5 8 -10 18 -10 38 0 42 -18 42 -191 0 -174 -2 -181
-45 -192 -11 -2 30 -5 90 -5 103 -1 108 0 78 13 l-33 14 0 91 0 90 100 0 100
0 0 -90 0 -91 -32 -14 c-31 -13 -26 -14 77 -14 103 0 108 1 78 14 l-33 14 0
169 c0 174 4 192 42 192 10 0 18 5 18 10 0 6 -42 10 -105 10 -63 0 -105 -4
-105 -10 0 -5 8 -10 18 -10 32 0 42 -22 42 -92 l0 -68 -100 0 -100 0 0 68 c0
70 10 92 42 92 10 0 18 5 18 10 0 6 -42 10 -105 10 -63 0 -105 -4 -105 -10z"/>
<path d="M6220 1100 c0 -5 8 -10 18 -10 38 0 42 -18 42 -192 l0 -169 -32 -14
c-30 -13 -16 -14 157 -15 l190 0 23 63 c12 34 22 65 22 68 0 3 -21 -15 -47
-41 -49 -49 -97 -70 -160 -70 -61 0 -63 3 -63 106 0 85 2 94 19 94 42 0 82
-23 101 -59 l19 -36 1 93 c0 50 -2 92 -5 92 -2 0 -11 -13 -20 -30 -10 -20 -27
-32 -53 -39 -63 -18 -62 -19 -62 70 l0 82 66 -6 c75 -7 106 -23 134 -70 l20
-32 0 63 0 62 -185 0 c-117 0 -185 -4 -185 -10z"/>
<path d="M6968 1045 c-1 -36 0 -65 3 -65 3 0 13 18 22 40 16 42 45 60 98 60
l29 0 0 -152 c0 -84 -3 -164 -7 -177 -3 -13 -19 -29 -37 -37 -28 -12 -21 -13
84 -13 82 1 107 3 86 9 -16 5 -33 15 -37 22 -5 7 -9 88 -9 181 l0 167 36 0
c41 0 94 -45 94 -79 0 -12 5 -21 11 -21 8 0 9 11 5 31 -3 17 -6 47 -6 65 l0
34 -184 0 -184 0 -4 -65z"/>
<path d="M7370 1101 c0 -5 10 -11 22 -13 38 -5 48 -42 48 -183 0 -157 -4 -173
-44 -191 -27 -12 -9 -13 159 -14 l190 0 25 62 c14 35 26 67 28 73 2 5 -14 -9
-35 -32 -59 -64 -134 -93 -208 -79 l-35 7 0 94 c0 89 1 95 20 95 42 0 90 -29
105 -62 14 -32 14 -29 15 62 l0 95 -19 -31 c-18 -30 -64 -54 -102 -54 -17 0
-19 9 -19 81 l0 82 66 -6 c75 -7 106 -23 134 -70 l20 -32 0 63 0 62 -185 0
c-107 0 -185 -4 -185 -9z"/>
<path d="M7800 1100 c0 -5 7 -10 16 -10 9 0 29 -8 45 -17 l29 -17 0 -127 c0
-173 -3 -187 -54 -209 l-41 -19 100 0 c59 -1 95 3 90 8 -6 5 -19 11 -30 13
-36 6 -46 48 -43 183 l3 127 84 -99 c47 -54 109 -131 138 -170 30 -40 60 -73
67 -73 11 0 15 37 18 183 3 192 9 217 49 217 10 0 21 5 24 10 4 6 -27 10 -84
10 -54 0 -91 -4 -91 -10 0 -5 8 -10 18 -10 11 0 27 -9 38 -21 16 -18 20 -40
22 -142 l4 -122 -54 66 c-29 36 -84 105 -123 152 l-70 86 -77 0 c-46 1 -78 -3
-78 -9z"/>
<path d="M8310 1044 c0 -41 4 -63 10 -59 6 3 10 13 10 21 0 9 13 29 29 45 22
21 39 29 65 29 l36 0 -2 -172 -3 -173 -35 -17 -35 -18 115 0 115 0 -35 18 -35
17 -3 173 -2 172 33 0 c42 0 75 -24 95 -69 15 -33 16 -34 20 -12 2 13 1 44 -3
68 l-6 43 -185 0 -184 0 0 -66z"/>
<path d="M8720 1100 c0 -5 8 -10 18 -10 38 0 42 -18 42 -192 l0 -169 -32 -14
c-31 -13 -26 -14 77 -13 61 0 100 3 88 5 -39 8 -53 40 -53 125 l0 78 105 0
105 0 0 -90 0 -91 -32 -14 c-31 -13 -26 -14 77 -13 61 0 100 3 88 5 -45 9 -53
37 -53 179 0 171 5 193 41 201 62 12 24 23 -82 23 -71 0 -108 -4 -104 -10 3
-5 14 -10 24 -10 31 0 41 -22 41 -92 l0 -69 -102 3 -103 3 -3 29 c-2 17 -1 49
3 73 6 38 10 45 36 50 61 12 25 23 -76 23 -63 0 -105 -4 -105 -10z"/>
<path d="M1177 1073 c-4 -3 -7 -21 -7 -39 0 -18 -4 -36 -10 -39 -13 -8 -13
-68 1 -99 19 -41 4 -73 -49 -101 -53 -29 -131 -82 -163 -111 -28 -25 -99 -179
-99 -215 0 -45 -10 -59 -41 -59 -16 0 -29 -4 -29 -10 0 -15 -69 -24 -105 -13
-19 6 -37 7 -42 2 -13 -13 -101 45 -145 94 -27 30 -37 37 -38 25 0 -10 -4 -18
-10 -18 -17 0 -11 -44 12 -80 12 -19 22 -37 23 -40 0 -3 10 -22 22 -42 39 -66
136 -72 244 -15 79 43 101 43 166 4 l58 -34 187 2 c103 2 192 6 197 10 16 9
13 35 -3 35 -17 0 -22 13 -25 71 -2 44 0 47 46 83 33 25 51 49 59 74 10 35 13
37 62 43 76 10 102 18 102 32 0 23 -23 37 -81 49 l-57 12 -6 45 c-4 29 -17 59
-36 83 -34 42 -36 57 -14 100 15 28 15 34 1 64 -19 39 -66 64 -122 64 -22 0
-50 7 -61 15 -22 16 -28 18 -37 8z m33 -678 c0 -8 -4 -15 -10 -15 -5 0 -7 7
-4 15 4 8 8 15 10 15 2 0 4 -7 4 -15z"/>
<path d="M1780 994 c-44 -19 -48 -23 -31 -34 12 -6 9 -15 -14 -42 l-28 -33 27
-3 c19 -2 32 -14 45 -41 21 -40 57 -63 89 -54 33 8 57 -58 44 -117 -39 -168
-38 -200 3 -282 21 -43 22 -49 9 -63 -22 -21 -70 -19 -94 5 -11 11 -33 49 -49
85 -32 69 -46 81 -87 71 -33 -9 -30 -49 4 -54 17 -3 25 -14 33 -48 13 -52 83
-135 129 -154 51 -21 126 -8 164 29 25 24 41 31 73 31 61 0 131 50 166 120 23
46 26 64 22 110 -3 30 -5 81 -4 113 0 34 -9 88 -21 129 -19 59 -28 74 -61 96
-21 15 -69 48 -105 75 -47 33 -76 47 -99 47 -18 0 -49 7 -68 15 -46 19 -102
19 -147 -1z"/>
<path d="M2775 948 c-4 -35 -9 -101 -10 -147 -3 -69 -8 -95 -35 -152 -17 -37
-33 -85 -36 -106 -3 -21 -15 -55 -26 -76 -13 -26 -19 -51 -16 -78 3 -35 2 -38
-17 -33 -71 21 -148 103 -150 162 -1 44 -27 56 -45 21 -11 -19 -7 -33 26 -98
32 -63 48 -82 94 -113 30 -21 78 -43 105 -50 28 -7 63 -23 78 -35 28 -23 77
-31 77 -14 0 5 9 13 20 16 11 3 20 14 20 23 0 14 11 17 54 18 48 0 56 -2 65
-23 8 -18 19 -23 48 -23 l38 0 -2 148 c-2 81 -8 183 -14 227 -14 108 -14 142
2 192 12 39 11 49 -9 103 -12 33 -19 67 -16 75 8 20 1 19 -46 -5 -55 -28 -118
-26 -160 5 -19 14 -35 25 -36 25 0 0 -5 -28 -9 -62z"/>
<path d="M6520 621 c0 -5 11 -12 25 -15 33 -8 36 -26 33 -206 l-3 -155 -35
-12 c-30 -10 -7 -12 147 -12 l181 -1 22 66 c12 36 20 67 18 70 -3 2 -16 -13
-29 -34 -33 -51 -99 -83 -164 -80 l-50 3 -3 151 c-3 172 4 202 48 210 63 13
26 24 -80 24 -60 0 -110 -4 -110 -9z"/>
<path d="M6935 620 c3 -5 15 -10 25 -10 35 0 41 -32 38 -202 l-3 -163 -35 -12
c-31 -11 -22 -12 80 -12 105 0 112 1 84 13 -17 8 -34 21 -38 31 -10 26 -7 281
4 309 5 14 24 32 42 40 31 14 26 14 -85 15 -76 1 -116 -3 -112 -9z"/>
<path d="M7190 620 c0 -5 8 -10 18 -10 38 0 42 -18 42 -192 l0 -169 -32 -14
c-31 -13 -26 -14 82 -14 102 0 111 1 80 12 l-35 12 -3 99 -3 99 43 -7 c50 -8
65 -19 83 -60 12 -29 13 -25 14 62 1 50 -1 92 -4 92 -2 0 -11 -13 -20 -30 -10
-20 -27 -32 -53 -39 -62 -18 -62 -18 -62 69 l0 80 38 0 c88 -1 128 -21 169
-86 10 -16 12 -9 12 44 l1 62 -185 0 c-117 0 -185 -4 -185 -10z"/>
<path d="M7590 620 c0 -5 6 -10 14 -10 8 0 22 -7 30 -16 13 -13 16 -43 16
-172 0 -86 -4 -162 -8 -169 -4 -7 -19 -16 -32 -22 -18 -7 30 -9 163 -8 l188 2
24 60 c34 81 32 85 -15 32 -55 -62 -143 -91 -218 -71 -22 6 -23 10 -20 98 l3
91 39 -2 c40 -3 86 -34 86 -59 0 -7 5 -16 10 -19 6 -4 10 27 10 84 0 54 -4 91
-10 91 -5 0 -10 -6 -10 -13 0 -26 -46 -57 -86 -60 l-39 -2 0 75 0 75 30 3 c17
2 54 -1 82 -8 50 -11 65 -22 100 -76 10 -16 12 -9 12 44 l1 62 -185 0 c-117 0
-185 -4 -185 -10z"/>
</g>
</svg>
